<mxfile host="app.diagrams.net" modified="2024-03-19T09:32:39.357Z" agent="Mozilla/5.0 (Windows NT 10.0; Win64; x64) AppleWebKit/537.36 (KHTML, like Gecko) Chrome/122.0.0.0 Safari/537.36 Edg/122.0.0.0" version="21.5.2" etag="eIAYdBh6O3QPWsCp4vlE" type="github">
  <diagram name="Page-1" id="7xuGK8rCiSRAUkRJbVGG">
    <mxGraphModel>
      <root>
        <mxCell id="0" />
        <mxCell id="1" parent="0" />
      </root>
    </mxGraphModel>
  </diagram>
</mxfile>
